/* XPM */
static char * close_pressed_xpm[] = {
"18 18 6 1",
" 	c None",
".	c #FEFFFF",
"+	c #252628",
"@	c #262729",
"#	c #E24512",
"$	c #593120",
"..................",
"++++++++++++++++++",
"@@@@@@@@@@@@@@@@@@",
"@@@@@@@@@@@@@@@@@@",
"@@@@@@@@@@@@@@@@@@",
"@@@@@@@@@@@@@@@@@@",
"@@@@@#$@@@$#@@@@@@",
"@@@@@$#$@$#$@@@@@@",
"@@@@@@$#$#$@@@@@@@",
"@@@@@@@$#$@@@@@@@@",
"@@@@@@$#$#$@@@@@@@",
"@@@@@$#$@$#$@@@@@@",
"@@@@@#$@@@$#@@@@@@",
"@@@@@@@@@@@@@@@@@@",
"@@@@@@@@@@@@@@@@@@",
"@@@@@@@@@@@@@@@@@@",
"@@@@@@@@@@@@@@@@@@",
"@@@@@@@@@@@@@@@@@@"};
