/* XPM */
static char * minimize_active_xpm[] = {
"18 18 5 1",
" 	c None",
".	c #FEFFFF",
"+	c #252628",
"@	c #262729",
"#	c #646567",
"..................",
"++++++++++++++++++",
"@@@@@@@@@@@@@@@@@@",
"@@@@@@@@@@@@@@@@@@",
"@@@@@@@@@@@@@@@@@@",
"@@@@@@@@@@@@@@@@@@",
"@@@@@@@@@@@@@@@@@@",
"@@@@@.#@@@#.@@@@@@",
"@@@@@#.#@#.#@@@@@@",
"@@@@@@#.#.#@@@@@@@",
"@@@@@@@#.#@@@@@@@@",
"@@@@@@@@@@@@@@@@@@",
"@@@@@@@@@@@@@@@@@@",
"@@@@@@@@@@@@@@@@@@",
"@@@@@@@@@@@@@@@@@@",
"@@@@@@@@@@@@@@@@@@",
"@@@@@@@@@@@@@@@@@@",
"@@@@@@@@@@@@@@@@@@"};
