/* XPM */
static char * minimize_inactive_xpm[] = {
"18 18 6 1",
" 	c None",
".	c #FEFFFF",
"+	c #252628",
"@	c #262729",
"#	c #6B6B6B",
"$	c #3A3A3C",
"..................",
"++++++++++++++++++",
"@@@@@@@@@@@@@@@@@@",
"@@@@@@@@@@@@@@@@@@",
"@@@@@@@@@@@@@@@@@@",
"@@@@@@@@@@@@@@@@@@",
"@@@@@@@@@@@@@@@@@@",
"@@@@@#$@@@$#@@@@@@",
"@@@@@$#$@$#$@@@@@@",
"@@@@@@$#$#$@@@@@@@",
"@@@@@@@$#$@@@@@@@@",
"@@@@@@@@@@@@@@@@@@",
"@@@@@@@@@@@@@@@@@@",
"@@@@@@@@@@@@@@@@@@",
"@@@@@@@@@@@@@@@@@@",
"@@@@@@@@@@@@@@@@@@",
"@@@@@@@@@@@@@@@@@@",
"@@@@@@@@@@@@@@@@@@"};
