/* XPM */
static char * maximize_pressed_xpm[] = {
"18 18 6 1",
" 	c None",
".	c #FEFFFF",
"+	c #252628",
"@	c #262729",
"#	c #593120",
"$	c #E24512",
"..................",
"++++++++++++++++++",
"@@@@@@@@@@@@@@@@@@",
"@@@@@@@@@@@@@@@@@@",
"@@@@@@@@@@@@@@@@@@",
"@@@@@@@@@@@@@@@@@@",
"@@@@@@@@@@@@@@@@@@",
"@@@@@@@#$#@@@@@@@@",
"@@@@@@#$#$#@@@@@@@",
"@@@@@#$#@#$#@@@@@@",
"@@@@@$#@@@#$@@@@@@",
"@@@@@@@@@@@@@@@@@@",
"@@@@@@@@@@@@@@@@@@",
"@@@@@@@@@@@@@@@@@@",
"@@@@@@@@@@@@@@@@@@",
"@@@@@@@@@@@@@@@@@@",
"@@@@@@@@@@@@@@@@@@",
"@@@@@@@@@@@@@@@@@@"};
