/* XPM */
static char * title_3_inactive_xpm[] = {
"4 18 3 1",
" 	c None",
".	c #FFFFFF",
"+	c #262729",
"....",
"++++",
"++++",
"++++",
"++++",
"++++",
"++++",
"++++",
"++++",
"++++",
"++++",
"++++",
"++++",
"++++",
"++++",
"++++",
"++++",
"++++"};
